<svg width="20" height="20" viewBox="0 0 20 20" fill="none" xmlns="http://www.w3.org/2000/svg">
<path d="M1.66797 1.6665V18.3332M6.66797 11.6665H10.8346C11.7551 11.6665 12.5013 12.4127 12.5013 13.3332V14.9998C12.5013 15.9203 11.7551 16.6665 10.8346 16.6665H6.66797C5.74749 16.6665 5.0013 15.9203 5.0013 14.9998V13.3332C5.0013 12.4127 5.74749 11.6665 6.66797 11.6665ZM6.66797 3.33317H16.668C17.5884 3.33317 18.3346 4.07936 18.3346 4.99984V6.6665C18.3346 7.58698 17.5884 8.33317 16.668 8.33317H6.66797C5.74749 8.33317 5.0013 7.58698 5.0013 6.6665V4.99984C5.0013 4.07936 5.74749 3.33317 6.66797 3.33317Z" stroke="#999999" stroke-width="1.5" stroke-linecap="round" stroke-linejoin="round"/>
</svg>
