<svg width="20" height="20" viewBox="0 0 20 20" fill="none" xmlns="http://www.w3.org/2000/svg">
<path d="M17.5 11.25L17.5 15.8333C17.5 16.2754 17.3244 16.6993 17.0118 17.0118C16.6993 17.3244 16.2754 17.5 15.8333 17.5L4.16667 17.5C3.72464 17.5 3.30072 17.3244 2.98816 17.0118C2.67559 16.6993 2.5 16.2754 2.5 15.8333L2.5 4.16667C2.5 3.72464 2.67559 3.30072 2.98816 2.98815C3.30072 2.67559 3.72464 2.5 4.16667 2.5L8.75 2.5M16.3333 8.08329L16 7.24996M2.5 7.5L8.75 7.5M14.0834 7.33329L13.8334 8.08329M18.0834 6.16658L17.3334 5.91659M12.75 6.00008L11.9167 6.33341M12.6667 4.08325L11.9167 3.83325M18.0833 3.66671L17.25 4.00004M13.9999 2.75004L13.6666 1.91671M16.1667 1.91662L15.9167 2.66663M2.5 12.5L17.5 12.5M15 2.5C16.3807 2.5 17.5 3.61929 17.5 5C17.5 6.38071 16.3807 7.5 15 7.5C13.6193 7.5 12.5 6.38071 12.5 5C12.5 3.61929 13.6193 2.5 15 2.5Z" stroke="#081209" stroke-width="1.5" stroke-linecap="round" stroke-linejoin="round"/>
</svg>
