<svg width="66" height="66" viewBox="0 0 66 66" fill="none" xmlns="http://www.w3.org/2000/svg">
<path d="M19.5769 30.2164V41.0863C19.5769 42.5277 20.1495 43.9101 21.1688 44.9294C22.1881 45.9486 23.5705 46.5212 25.0119 46.5212H35.8818M14.142 8.47656H25.0119C28.0135 8.47656 30.4468 10.9099 30.4468 13.9115V24.7814C30.4468 27.7831 28.0135 30.2164 25.0119 30.2164H14.142C11.1403 30.2164 8.70703 27.7831 8.70703 24.7814V13.9115C8.70703 10.9099 11.1403 8.47656 14.142 8.47656ZM41.3168 35.6513H52.1867C55.1883 35.6513 57.6216 38.0846 57.6216 41.0863V51.9562C57.6216 54.9578 55.1883 57.3912 52.1867 57.3912H41.3168C38.3151 57.3912 35.8818 54.9578 35.8818 51.9562V41.0863C35.8818 38.0846 38.3151 35.6513 41.3168 35.6513Z" stroke="#1570BA" stroke-width="3" stroke-linecap="round" stroke-linejoin="round"/>
</svg>
